<svg height="512pt" viewBox="0 -24 512 511" width="512pt" xmlns="http://www.w3.org/2000/svg"><path d="m480.441406 222.484375-30.855468 191.726563h-161.988282v-32.457032c0-16.976562-13.769531-30.730468-30.734375-30.730468h-1.722656c-16.976563 0-30.730469 13.753906-30.730469 30.730468v32.457032h-162.003906l-30.851562-191.726563zm0 0" fill="#91def5"/><path d="m287.589844 454.222656h-63.183594v-72.46875c0-16.972656 13.761719-30.734375 30.734375-30.734375h1.71875c16.972656 0 30.734375 13.761719 30.734375 30.734375v72.46875zm0 0" fill="#98a1b3"/><path d="m115.609375 161.082031h-105.609375v61.40625h492v-61.40625zm0 0" fill="#e8e7e9"/><g fill="#91def5"><path d="m69.695312 75.113281 58.410157 24.742188-58.410157 24.742187zm0 0"/><path d="m256 23.339844 58.410156 24.742187-58.410156 24.742188zm0 0"/><path d="m442.304688 75.113281 58.40625 24.742188-58.40625 24.742187zm0 0"/></g><path d="m43.488281 414.210938h180.917969v40.015624h-180.917969zm0 0" fill="#e8e7e9"/><path d="m287.597656 414.210938h178.496094v40.015624h-178.496094zm0 0" fill="#e8e7e9"/><path d="m155.300781 169.394531c3.535157 2.351563 8.257813 2.1875 11.636719-.378906 3.179688-2.421875 4.597656-6.667969 3.5625-10.519531-1.117188-4.136719-4.835938-7.160156-9.121094-7.394532-4.246094-.230468-8.269531 2.359376-9.828125 6.3125-1.699219 4.300782-.140625 9.429688 3.75 11.980469zm0 0"/><path d="m502 232.488281c5.523438 0 10-4.476562 10-10v-61.40625c0-5.519531-4.476562-10-10-10h-49.695312v-19.859375l52.308593-22.15625c3.699219-1.566406 6.101563-5.191406 6.101563-9.207031s-2.402344-7.644531-6.101563-9.210937l-52.308593-22.15625v-6.21875c0-5.519532-4.480469-10-10-10-5.523438 0-10 4.480468-10 10v88.808593h-166.410157v-71.585937l52.417969-22.207032c3.695312-1.5625 6.097656-5.191406 6.097656-9.207031s-2.402344-7.640625-6.097656-9.207031l-52.417969-22.203125v-6.171875c0-5.523438-4.480469-10-10-10-5.523437 0-10 4.476562-10 10v140.582031h-40.253906c-5.523437 0-10 4.480469-10 10 0 5.523438 4.476563 10 10 10h286.359375v41.40625h-11.507812c-.015626 0-.035157-.003906-.050782-.003906h-448.886718c-.019532 0-.035157.003906-.054688.003906h-11.5v-41.40625h95.609375c5.523437 0 10-4.476562 10-10 0-5.519531-4.476563-10-10-10h-35.914063v-19.859375l52.3125-22.15625c3.695313-1.566406 6.101563-5.191406 6.101563-9.207031s-2.402344-7.644531-6.101563-9.210937l-52.3125-22.15625v-6.21875c0-5.519532-4.476562-10-10-10-5.519531 0-10 4.480468-10 10v88.808593h-49.695312c-5.523438 0-10 4.480469-10 10v61.40625c0 5.523438 4.476562 10 10 10h13.035156l6.765625 42.039063h-.160156c-5.523437 0-10 4.476562-10 10 0 5.523437 4.476563 10 10 10h3.378906l7.480469 46.492187h-1.144531c-5.523438 0-10 4.480469-10 10 0 5.523438 4.476562 10 10 10h4.363281l6.953125 43.191407h-7.183594c-5.519531 0-10 4.476562-10 10v30.011718h-23.488281c-5.523438 0-10 4.476563-10 10 0 5.523438 4.476562 10 10 10h492c5.523438 0 10-4.476562 10-10 0-5.523437-4.476562-10-10-10h-25.90625v-30.011718c0-5.523438-4.476562-10-10-10h-4.769531l6.949219-43.191407h4.371093c5.523438 0 10-4.476562 10-10 0-5.519531-4.476562-10-10-10h-1.152343l7.484374-46.492187h3.382813c5.523437 0 10-4.476563 10-10 0-5.523438-4.476563-10-10-10h-.164063l6.765626-42.039063zm-26.925781-132.632812-22.769531 9.648437v-19.292968zm-209.074219-61.417969 22.773438 9.644531-22.773438 9.648438zm-163.53125 61.417969-22.769531 9.648437v-19.292968zm230.488281 304.355469 2.132813-43.191407h52.574218l-4.738281 43.191407zm-202.152343 0-4.742188-43.191407h50.574219l2.132812 43.191407zm64.871093-63.191407-2.296875-46.492187h52.621094v46.492187zm-3.285156-66.492187-2.078125-42.039063h55.6875v42.039063zm73.609375 66.492187v-46.492187h52.351562l-2.296874 46.492187zm0-66.492187v-42.039063h55.414062l-2.074218 42.039063zm-95.710938-42.039063 2.074219 42.039063h-55.792969l-4.617187-42.039063zm3.0625 62.039063 2.296876 46.492187h-51.78125l-5.101563-46.492187zm25.445313 109.683594-2.136719-43.191407h23.4375c-2.269531 3.824219-3.9375 8.042969-4.859375 12.535157-.546875 2.648437-.832031 5.390624-.832031 8.199218v22.453125h-15.609375zm93.109375-43.191407h23.160156l-2.132812 43.191407h-15.335938v-22.457032c0-7.566406-2.082031-14.65625-5.691406-20.734375zm44.171875-20 2.296875-46.492187h56.589844l-5.105469 46.492187zm3.285156-66.492187 2.074219-42.039063h60.335938l-4.617188 42.039063zm-296.070312-42.039063h48.542969l4.613281 42.039063h-46.390625zm9.984375 62.039063h45.367187l5.101563 46.492187h-42.988282zm10.699218 66.492187h41.964844l4.742188 43.191407h-39.757813zm-10.488281 63.191407h160.917969v20.011718h-160.917969zm180.917969 20.011718v-62.46875c0-11.433594 9.304688-20.734375 20.734375-20.734375h1.71875c11.429687 0 20.730469 9.300781 20.730469 20.734375v62.46875zm63.191406 0v-20.015625h158.496094v20.015625zm143.46875-40.011718h-38.019531l4.738281-43.191407h40.230469zm10.167969-63.191407h-41.253906l5.105469-46.492187h43.632812zm10.703125-66.492187h-44.65625l4.613281-42.039063h46.808594zm0 0"/></svg>